<?xml version="1.0" encoding="UTF-8"?>
<!DOCTYPE svg PUBLIC "-//W3C//DTD SVG 1.1//EN" "http://www.w3.org/Graphics/SVG/1.1/DTD/svg11.dtd">
<svg xmlns="http://www.w3.org/2000/svg" version="1.1" width="400px" height="400px" style="shape-rendering:geometricPrecision; text-rendering:geometricPrecision; image-rendering:optimizeQuality; fill-rule:evenodd; clip-rule:evenodd" xmlns:xlink="http://www.w3.org/1999/xlink">
<g><path style="opacity:0.999" fill="#111111" d="M 315.5,399.5 C 237.5,399.5 159.5,399.5 81.5,399.5C 37.1647,389.165 9.83133,361.831 -0.5,317.5C -0.5,239.167 -0.5,160.833 -0.5,82.5C 9.14608,41.6829 34.1461,15.1829 74.5,3C 78.4686,2.14734 82.4686,1.48067 86.5,1C 161.5,0.333333 236.5,0.333333 311.5,1C 355.071,8.90372 383.238,34.0704 396,76.5C 396.853,80.4686 397.519,84.4686 398,88.5C 398.979,165.527 398.646,242.527 397,319.5C 386.089,362.913 358.922,389.579 315.5,399.5 Z"/></g>
<g><path style="opacity:1" fill="#54bdb8" d="M 184.5,91.5 C 213.188,87.8384 239.188,94.5051 262.5,111.5C 258.43,110.644 254.43,109.477 250.5,108C 249.359,107.259 249.359,106.425 250.5,105.5C 248.994,104.253 247.494,104.253 246,105.5C 243.266,104.638 243.099,103.805 245.5,103C 238.751,100.581 232.085,97.914 225.5,95C 211.887,93.172 198.22,92.0053 184.5,91.5 Z"/></g>
<g><path style="opacity:1" fill="#42cfca" d="M 184.5,91.5 C 198.22,92.0053 211.887,93.172 225.5,95C 232.085,97.914 238.751,100.581 245.5,103C 243.099,103.805 243.266,104.638 246,105.5C 247.494,104.253 248.994,104.253 250.5,105.5C 249.359,106.425 249.359,107.259 250.5,108C 254.43,109.477 258.43,110.644 262.5,111.5C 270.101,116.099 276.434,122.099 281.5,129.5C 282.718,138.446 278.718,142.28 269.5,141C 240.693,111.179 206.359,102.179 166.5,114C 160.713,116.394 155.046,119.06 149.5,122C 140.386,123.553 136.553,119.72 138,110.5C 138.465,109.069 139.299,107.903 140.5,107C 142.898,105.476 145.231,103.976 147.5,102.5C 159.276,97.0196 171.61,93.3529 184.5,91.5 Z"/></g>
<g><path style="opacity:1" fill="#0e1515" d="M 147.5,102.5 C 145.231,103.976 142.898,105.476 140.5,107C 139.299,107.903 138.465,109.069 138,110.5C 136.553,119.72 140.386,123.553 149.5,122C 155.046,119.06 160.713,116.394 166.5,114C 206.359,102.179 240.693,111.179 269.5,141C 278.718,142.28 282.718,138.446 281.5,129.5C 283.154,131.56 284.154,134.06 284.5,137C 282.5,137.667 281.167,139 280.5,141C 276.916,142.073 273.25,142.74 269.5,143C 272.371,144.371 274.371,146.537 275.5,149.5C 276.467,155.114 277.134,160.781 277.5,166.5C 256.948,128.019 224.948,111.852 181.5,118C 140.135,129.582 117.802,156.748 114.5,199.5C 114.431,210.19 116.265,220.523 120,230.5C 125.353,235.965 130.353,235.632 135,229.5C 135.158,222.449 134.491,215.449 133,208.5C 130.873,176.206 144.373,153.04 173.5,139C 206.614,128.227 233.781,136.394 255,163.5C 262.956,176.704 267.289,191.038 268,206.5C 271.338,209.318 275.171,210.151 279.5,209C 281.667,208.167 283.167,206.667 284,204.5C 284.857,191.62 282.69,179.286 277.5,167.5C 278.117,167.611 278.617,167.944 279,168.5C 279.966,164.06 280.799,159.727 281.5,155.5C 284.89,165.916 287.723,176.583 290,187.5C 290.667,195.167 290.667,202.833 290,210.5C 289.435,217.182 287.935,223.515 285.5,229.5C 285.842,224.452 286.508,219.452 287.5,214.5C 285.403,214.003 283.57,213.67 282,213.5C 279.174,215.34 276.007,216.006 272.5,215.5C 272.48,213.857 273.147,212.524 274.5,211.5C 269.975,210.157 266.475,207.49 264,203.5C 263.727,205.101 263.227,206.601 262.5,208C 266.636,210.609 269.303,214.275 270.5,219C 270,219.167 269.5,219.333 269,219.5C 267.667,218.167 266.333,216.833 265,215.5C 264.127,215.735 263.293,216.069 262.5,216.5C 261.675,212.878 261.175,209.211 261,205.5C 260.667,210.167 260.333,214.833 260,219.5C 257.284,222.487 256.117,225.82 256.5,229.5C 257.478,229.023 258.311,228.357 259,227.5C 260.414,228.413 261.914,228.413 263.5,227.5C 258.51,233.009 254.01,239.009 250,245.5C 229.845,266.507 205.679,273.007 177.5,265C 170.708,262.105 164.375,258.438 158.5,254C 146.658,250.636 142.158,254.802 145,266.5C 163.937,282.255 185.771,288.755 210.5,286C 238.976,280.496 260.476,265.329 275,240.5C 275.49,239.207 275.657,237.873 275.5,236.5C 276.224,239.083 277.057,241.749 278,244.5C 278.699,238.941 280.032,233.608 282,228.5C 282.934,229.858 283.768,231.192 284.5,232.5C 276.023,256.147 260.357,273.314 237.5,284C 228.054,287.777 218.387,290.777 208.5,293C 205.9,295.984 204.9,299.484 205.5,303.5C 202.905,299.954 202.905,296.287 205.5,292.5C 213.023,289.894 220.69,287.727 228.5,286C 227.127,285.125 225.627,284.625 224,284.5C 212.98,287.691 201.814,288.858 190.5,288C 192.147,293.485 192.647,299.652 192,306.5C 190.259,307.758 188.426,308.758 186.5,309.5C 192.608,304.352 192.941,298.852 187.5,293C 142.56,284.06 115.726,257.226 107,212.5C 104.277,185.04 111.611,160.707 129,139.5C 129.498,136.518 129.665,133.518 129.5,130.5C 132.87,128.417 133.037,126.083 130,123.5C 129.173,119.459 129.34,115.459 130.5,111.5C 131.69,113.453 133.024,115.287 134.5,117C 131.783,119.685 132.45,121.518 136.5,122.5C 137.674,119.475 137.007,116.808 134.5,114.5C 136.096,112.04 137.262,109.374 138,106.5C 140.483,103.511 143.65,102.178 147.5,102.5 Z"/></g>
<g><path style="opacity:1" fill="#41cfca" d="M 277.5,166.5 C 277.5,166.833 277.5,167.167 277.5,167.5C 282.69,179.286 284.857,191.62 284,204.5C 283.167,206.667 281.667,208.167 279.5,209C 275.171,210.151 271.338,209.318 268,206.5C 267.289,191.038 262.956,176.704 255,163.5C 233.781,136.394 206.614,128.227 173.5,139C 144.373,153.04 130.873,176.206 133,208.5C 134.491,215.449 135.158,222.449 135,229.5C 130.353,235.632 125.353,235.965 120,230.5C 116.265,220.523 114.431,210.19 114.5,199.5C 117.802,156.748 140.135,129.582 181.5,118C 224.948,111.852 256.948,128.019 277.5,166.5 Z"/></g>
<g><path style="opacity:1" fill="#41cfc9" d="M 129.5,130.5 C 129.665,133.518 129.498,136.518 129,139.5C 111.611,160.707 104.277,185.04 107,212.5C 115.726,257.226 142.56,284.06 187.5,293C 192.941,298.852 192.608,304.352 186.5,309.5C 140.67,303.497 109.837,278.83 94,235.5C 81.9404,195.46 89.4404,159.627 116.5,128C 121.374,125.808 125.707,126.641 129.5,130.5 Z"/></g>
<g><path style="opacity:1" fill="#52b7b5" d="M 145.5,174.5 C 144.654,178.363 143.654,182.196 142.5,186C 142.559,187.436 142.892,188.769 143.5,190C 141.983,191.779 141.149,191.279 141,188.5C 140.5,196.493 140.334,204.493 140.5,212.5C 136.938,199.193 138.605,186.527 145.5,174.5 Z"/></g>
<g><path style="opacity:1" fill="#121112" d="M 285.5,229.5 C 285.737,230.791 285.404,231.791 284.5,232.5C 283.768,231.192 282.934,229.858 282,228.5C 280.032,233.608 278.699,238.941 278,244.5C 277.057,241.749 276.224,239.083 275.5,236.5C 274.115,230.13 270.115,227.13 263.5,227.5C 261.914,228.413 260.414,228.413 259,227.5C 258.311,228.357 257.478,229.023 256.5,229.5C 256.117,225.82 257.284,222.487 260,219.5C 260.333,214.833 260.667,210.167 261,205.5C 261.175,209.211 261.675,212.878 262.5,216.5C 263.293,216.069 264.127,215.735 265,215.5C 266.333,216.833 267.667,218.167 269,219.5C 269.5,219.333 270,219.167 270.5,219C 269.303,214.275 266.636,210.609 262.5,208C 263.227,206.601 263.727,205.101 264,203.5C 266.475,207.49 269.975,210.157 274.5,211.5C 273.147,212.524 272.48,213.857 272.5,215.5C 276.007,216.006 279.174,215.34 282,213.5C 283.57,213.67 285.403,214.003 287.5,214.5C 286.508,219.452 285.842,224.452 285.5,229.5 Z"/></g>
<g><path style="opacity:1" fill="#3fcfca" d="M 140.5,212.5 C 140.334,204.493 140.5,196.493 141,188.5C 141.149,191.279 141.983,191.779 143.5,190C 142.892,188.769 142.559,187.436 142.5,186C 143.654,182.196 144.654,178.363 145.5,174.5C 159.586,148.79 181.253,137.957 210.5,142C 215.788,147.129 215.788,152.295 210.5,157.5C 195.663,156.373 182.33,160.207 170.5,169C 154.766,186.244 152.599,205.077 164,225.5C 178.069,242.295 195.569,247.129 216.5,240C 237.827,227.712 245.327,209.545 239,185.5C 235.8,178.307 231.133,172.307 225,167.5C 220.259,159.319 222.426,153.986 231.5,151.5C 237.64,154.128 242.807,158.128 247,163.5C 261.683,185.14 263.35,207.807 252,231.5C 233.559,257.982 208.726,266.816 177.5,258C 156.842,249.517 144.508,234.35 140.5,212.5 Z"/></g>
<g><path style="opacity:1" fill="#3dd0cb" d="M 189.5,167.5 C 210.744,164.365 225.244,172.698 233,192.5C 235.879,212.592 228.045,226.425 209.5,234C 188.234,238.618 173.734,230.785 166,210.5C 162.582,189.807 170.415,175.474 189.5,167.5 Z"/></g>
<g><path style="opacity:1" fill="#40cec9" d="M 263.5,227.5 C 270.115,227.13 274.115,230.13 275.5,236.5C 275.657,237.873 275.49,239.207 275,240.5C 260.476,265.329 238.976,280.496 210.5,286C 185.771,288.755 163.937,282.255 145,266.5C 142.158,254.802 146.658,250.636 158.5,254C 164.375,258.438 170.708,262.105 177.5,265C 205.679,273.007 229.845,266.507 250,245.5C 254.01,239.009 258.51,233.009 263.5,227.5 Z"/></g>
<g><path style="opacity:1" fill="#43cdc8" d="M 304.5,227.5 C 296.711,258.292 279.044,281.625 251.5,297.5C 238.666,304.431 224.999,308.264 210.5,309C 208.285,307.621 206.619,305.787 205.5,303.5C 204.9,299.484 205.9,295.984 208.5,293C 218.387,290.777 228.054,287.777 237.5,284C 260.357,273.314 276.023,256.147 284.5,232.5C 285.404,231.791 285.737,230.791 285.5,229.5C 287.935,223.515 289.435,217.182 290,210.5C 290.667,202.833 290.667,195.167 290,187.5C 287.723,176.583 284.89,165.916 281.5,155.5C 286.202,148.493 291.702,147.826 298,153.5C 309.347,177.469 311.514,202.136 304.5,227.5 Z"/></g>
<g><path style="opacity:1" fill="#3cd1cd" d="M 304.5,227.5 C 303.732,228.263 303.232,229.263 303,230.5C 301.957,228.299 301.123,225.966 300.5,223.5C 299.914,223.709 299.414,224.043 299,224.5C 300.146,229.288 300.646,234.288 300.5,239.5C 299.5,239.5 298.5,239.5 297.5,239.5C 297.279,236.608 296.446,233.941 295,231.5C 296.598,246.502 294.432,247.169 288.5,233.5C 290.546,222.265 291.546,210.931 291.5,199.5C 289.943,185.843 288.943,172.176 288.5,158.5C 290.045,157.548 291.712,157.215 293.5,157.5C 293.215,159.288 293.548,160.955 294.5,162.5C 297.261,165.774 299.428,169.44 301,173.5C 301.147,177.888 300.647,182.222 299.5,186.5C 299.833,188.167 300.167,189.833 300.5,191.5C 301.567,188.466 302.734,185.466 304,182.5C 304.333,183.833 304.667,185.167 305,186.5C 304.985,191.222 305.152,195.889 305.5,200.5C 303.89,209.511 303.556,218.511 304.5,227.5 Z"/></g>
</svg>
